M48
METRIC,LZ,000.000
;FILE_FORMAT=3:3
;TYPE=PLATED
;Layer: PTH_Through
;EasyEDA v6.5.42, 2024-06-30 20:06:19
;5c971d247c204a0cbf4ce5a758ce79e0,41c0ee39f02341fa96e3cac8100f2332,10
;Gerber Generator version 0.2
;Holesize 1 = 0.310 mm
T01C0.310
;Holesize 2 = 0.920 mm
T02C0.920
;Holesize 3 = 2.101 mm
T03C2.101
;Holesize 4 = 2.301 mm
T04C2.301
%
G05
G90
T01
X036957Y039497
X039497Y048514
X075565Y042164
X075565Y038989
X074041Y037592
X074069Y047148
X053213Y039497
X062738Y036830
X058420Y049403
T02
X043886Y033994
X041386Y033994
X039386Y033994
X036886Y033994
X061412Y033867
X058912Y033867
X056912Y033867
X054412Y033867
X026345Y052112
X028845Y052112
X030845Y052112
X033345Y052112
X045522Y051985
X048022Y051985
X050022Y051985
X052522Y051985
T03
X033386Y031284
X047386Y031284
X050912Y031157
X064912Y031157
X036845Y054822
X022845Y054822
X056022Y054695
X042022Y054695
T04
X079994Y047148
X079994Y035148
M30
