G04 Layer: TopPasteMaskLayer*
G04 EasyEDA v6.5.42, 2024-06-30 20:06:19*
G04 5c971d247c204a0cbf4ce5a758ce79e0,41c0ee39f02341fa96e3cac8100f2332,10*
G04 Gerber Generator version 0.2*
G04 Scale: 100 percent, Rotated: No, Reflected: No *
G04 Dimensions in millimeters *
G04 leading zeros omitted , absolute positions ,4 integer and 5 decimal *
%FSLAX45Y45*%
%MOMM*%

%ADD10R,1.0160X0.9144*%
%ADD11R,0.9144X1.0160*%
%ADD12R,1.0000X0.7500*%
%ADD13O,1.7450054X0.5599938*%

%LPD*%
G36*
X7699400Y4264812D02*
G01*
X7699400Y4164787D01*
X7899400Y4164787D01*
X7899400Y4264812D01*
G37*
G36*
X7699400Y4514799D02*
G01*
X7699400Y4414824D01*
X7899400Y4414824D01*
X7899400Y4514799D01*
G37*
G36*
X7699400Y3814826D02*
G01*
X7699400Y3714800D01*
X7899400Y3714800D01*
X7899400Y3814826D01*
G37*
G36*
X7699400Y4064812D02*
G01*
X7699400Y3964787D01*
X7899400Y3964787D01*
X7899400Y4064812D01*
G37*
G36*
X7999374Y3664813D02*
G01*
X7989316Y3664458D01*
X7979257Y3663442D01*
X7969300Y3661765D01*
X7957007Y3658717D01*
X7947456Y3655517D01*
X7938058Y3651707D01*
X7933486Y3649573D01*
X7926781Y3646068D01*
X7920228Y3642207D01*
X7911846Y3636619D01*
X7901889Y3628796D01*
X7894472Y3621989D01*
X7889189Y3616553D01*
X7885836Y3612794D01*
X7877962Y3602888D01*
X7872323Y3594506D01*
X7867243Y3585768D01*
X7862773Y3576675D01*
X7860741Y3572052D01*
X7856423Y3560165D01*
X7853121Y3548024D01*
X7851648Y3540556D01*
X7849971Y3528060D01*
X7849616Y3523030D01*
X7849412Y3512921D01*
X7849870Y3502812D01*
X7851038Y3492754D01*
X7852308Y3485286D01*
X7854645Y3475482D01*
X7856829Y3468217D01*
X7861249Y3456381D01*
X7865465Y3447186D01*
X7870342Y3438347D01*
X7875778Y3429812D01*
X7881772Y3421684D01*
X7884972Y3417773D01*
X7893558Y3408527D01*
X7899044Y3403295D01*
X7906816Y3396792D01*
X7917027Y3389426D01*
X7925663Y3384143D01*
X7932369Y3380587D01*
X7939227Y3377387D01*
X7946237Y3374542D01*
X7953400Y3372002D01*
X7963103Y3369259D01*
X7973009Y3367125D01*
X7985506Y3365449D01*
X7990535Y3365042D01*
X7998155Y3364788D01*
X8008213Y3365042D01*
X8020812Y3366312D01*
X8033207Y3368649D01*
X8042960Y3371291D01*
X8047786Y3372815D01*
X8059572Y3377387D01*
X8066430Y3380587D01*
X8073136Y3384143D01*
X8081772Y3389426D01*
X8091982Y3396792D01*
X8099755Y3403295D01*
X8108746Y3412134D01*
X8113826Y3417773D01*
X8120075Y3425698D01*
X8125815Y3434029D01*
X8130946Y3442715D01*
X8136534Y3454044D01*
X8140344Y3463442D01*
X8142731Y3470605D01*
X8144814Y3477920D01*
X8146948Y3487775D01*
X8148116Y3495294D01*
X8149081Y3505352D01*
X8149336Y3510381D01*
X8149386Y3517950D01*
X8149031Y3525520D01*
X8147964Y3535578D01*
X8146237Y3545535D01*
X8145119Y3550462D01*
X8141563Y3562604D01*
X8139887Y3567379D01*
X8134959Y3579012D01*
X8130336Y3587953D01*
X8125104Y3596640D01*
X8119313Y3604920D01*
X8114639Y3610864D01*
X8106156Y3620211D01*
X8096910Y3628796D01*
X8086953Y3636619D01*
X8078571Y3642207D01*
X8072018Y3646068D01*
X8065312Y3649573D01*
X8058403Y3652723D01*
X8049006Y3656380D01*
X8036915Y3660038D01*
X8027009Y3662222D01*
X8017052Y3663746D01*
X8006994Y3664610D01*
G37*
G36*
X7999374Y4864811D02*
G01*
X7989316Y4864455D01*
X7979257Y4863439D01*
X7969300Y4861763D01*
X7959445Y4859375D01*
X7949793Y4856378D01*
X7940395Y4852720D01*
X7933486Y4849571D01*
X7926781Y4846066D01*
X7920228Y4842205D01*
X7911846Y4836617D01*
X7901889Y4828794D01*
X7894472Y4821986D01*
X7889189Y4816551D01*
X7881010Y4806899D01*
X7875066Y4798720D01*
X7869732Y4790186D01*
X7864906Y4781245D01*
X7861757Y4774387D01*
X7858912Y4767376D01*
X7856423Y4760214D01*
X7853680Y4750460D01*
X7852562Y4745532D01*
X7850835Y4735576D01*
X7849768Y4725517D01*
X7849412Y4717948D01*
X7849463Y4710379D01*
X7850124Y4700270D01*
X7851394Y4690262D01*
X7853984Y4677918D01*
X7856067Y4670602D01*
X7858455Y4663440D01*
X7862265Y4654042D01*
X7866634Y4644948D01*
X7871663Y4636160D01*
X7877251Y4627778D01*
X7883347Y4619752D01*
X7891780Y4610303D01*
X7900974Y4601616D01*
X7908798Y4595266D01*
X7912862Y4592269D01*
X7923479Y4585411D01*
X7932369Y4580585D01*
X7939227Y4577384D01*
X7946237Y4574540D01*
X7953400Y4572000D01*
X7963103Y4569256D01*
X7973009Y4567123D01*
X7985506Y4565446D01*
X7990535Y4565040D01*
X7998155Y4564786D01*
X8008213Y4565040D01*
X8020812Y4566310D01*
X8033207Y4568647D01*
X8042960Y4571288D01*
X8047786Y4572812D01*
X8059572Y4577384D01*
X8066430Y4580585D01*
X8073136Y4584141D01*
X8081772Y4589424D01*
X8091982Y4596790D01*
X8099755Y4603292D01*
X8108746Y4612132D01*
X8113826Y4617770D01*
X8120075Y4625695D01*
X8125815Y4634026D01*
X8130946Y4642713D01*
X8136534Y4654042D01*
X8140344Y4663440D01*
X8142731Y4670602D01*
X8144814Y4677918D01*
X8146948Y4687773D01*
X8148116Y4695291D01*
X8149081Y4705350D01*
X8149336Y4710379D01*
X8149386Y4717948D01*
X8149031Y4725517D01*
X8147964Y4735576D01*
X8146237Y4745532D01*
X8145119Y4750460D01*
X8142376Y4760214D01*
X8139887Y4767376D01*
X8137042Y4774387D01*
X8133892Y4781245D01*
X8129066Y4790186D01*
X8123732Y4798720D01*
X8117789Y4806899D01*
X8109610Y4816551D01*
X8104327Y4821986D01*
X8100669Y4825441D01*
X8091017Y4833569D01*
X8086953Y4836617D01*
X8078571Y4842205D01*
X8072018Y4846066D01*
X8065312Y4849571D01*
X8058403Y4852720D01*
X8049006Y4856378D01*
X8039353Y4859375D01*
X8029498Y4861763D01*
X8019542Y4863439D01*
X8009483Y4864455D01*
G37*
D10*
G01*
X7226300Y4534154D03*
G01*
X7226300Y4381245D03*
D11*
G01*
X3543045Y3670300D03*
G01*
X3695954Y3670300D03*
G01*
X5168645Y3670300D03*
G01*
X5321554Y3670300D03*
D10*
G01*
X3949700Y5283454D03*
G01*
X3949700Y5130545D03*
G01*
X5842000Y5232654D03*
G01*
X5842000Y5079745D03*
D11*
G01*
X6972554Y4533900D03*
G01*
X6819645Y4533900D03*
G01*
X6972554Y4394200D03*
G01*
X6819645Y4394200D03*
D12*
G01*
X7229246Y4152900D03*
G01*
X6994753Y4152900D03*
D13*
G01*
X5961151Y4787900D03*
G01*
X5961151Y4660900D03*
G01*
X5961151Y4533900D03*
G01*
X5961151Y4406900D03*
G01*
X5961151Y4279900D03*
G01*
X5961151Y4152900D03*
G01*
X5961151Y4025900D03*
G01*
X5961151Y3898900D03*
G01*
X6535648Y4787900D03*
G01*
X6535648Y4660900D03*
G01*
X6535648Y4533900D03*
G01*
X6535648Y4406900D03*
G01*
X6535648Y4279900D03*
G01*
X6535648Y4152900D03*
G01*
X6535648Y4025900D03*
G01*
X6535648Y3898900D03*
M02*
