G04 Layer: TopSolderMaskLayer*
G04 EasyEDA v6.5.42, 2024-06-30 20:06:19*
G04 5c971d247c204a0cbf4ce5a758ce79e0,41c0ee39f02341fa96e3cac8100f2332,10*
G04 Gerber Generator version 0.2*
G04 Scale: 100 percent, Rotated: No, Reflected: No *
G04 Dimensions in millimeters *
G04 leading zeros omitted , absolute positions ,4 integer and 5 decimal *
%FSLAX45Y45*%
%MOMM*%

%AMMACRO1*1,1,$1,$2,$3*1,1,$1,$4,$5*1,1,$1,0-$2,0-$3*1,1,$1,0-$4,0-$5*20,1,$1,$2,$3,$4,$5,0*20,1,$1,$4,$5,0-$2,0-$3,0*20,1,$1,0-$2,0-$3,0-$4,0-$5,0*20,1,$1,0-$4,0-$5,$2,$3,0*4,1,4,$2,$3,$4,$5,0-$2,0-$3,0-$4,0-$5,$2,$3,0*%
%ADD10R,1.1176X1.0160*%
%ADD11MACRO1,0.1016X0.4572X-0.508X-0.4572X-0.508*%
%ADD12MACRO1,0.1016X-0.4572X0.508X0.4572X0.508*%
%ADD13MACRO1,0.1016X-0.5X0.375X0.5X0.375*%
%ADD14O,1.8466053999999998X0.6615938*%
%ADD15R,2.1000X1.1000*%
%ADD16C,3.1000*%
%ADD17C,2.7016*%
%ADD18C,1.6256*%
%ADD19MACRO1,0.1016X-0.762X0.762X0.762X0.762*%
%ADD20MACRO1,0.1016X0.762X-0.762X-0.762X-0.762*%

%LPD*%
D10*
G01*
X7226300Y4534154D03*
G01*
X7226300Y4381245D03*
D11*
G01*
X3543045Y3670300D03*
G01*
X3695954Y3670300D03*
G01*
X5168645Y3670300D03*
G01*
X5321554Y3670300D03*
D10*
G01*
X3949700Y5283454D03*
G01*
X3949700Y5130545D03*
G01*
X5842000Y5232654D03*
G01*
X5842000Y5079745D03*
D12*
G01*
X6972554Y4533900D03*
G01*
X6819645Y4533900D03*
G01*
X6972554Y4394200D03*
G01*
X6819645Y4394200D03*
D13*
G01*
X7229255Y4152900D03*
G01*
X6994749Y4152900D03*
D14*
G01*
X5961151Y4787900D03*
G01*
X5961151Y4660900D03*
G01*
X5961151Y4533900D03*
G01*
X5961151Y4406900D03*
G01*
X5961151Y4279900D03*
G01*
X5961151Y4152900D03*
G01*
X5961151Y4025900D03*
G01*
X5961151Y3898900D03*
G01*
X6535648Y4787900D03*
G01*
X6535648Y4660900D03*
G01*
X6535648Y4533900D03*
G01*
X6535648Y4406900D03*
G01*
X6535648Y4279900D03*
G01*
X6535648Y4152900D03*
G01*
X6535648Y4025900D03*
G01*
X6535648Y3898900D03*
D15*
G01*
X7799400Y4214799D03*
G01*
X7799400Y4464812D03*
G01*
X7799400Y4014800D03*
G01*
X7799400Y3764813D03*
D16*
G01*
X7999399Y4714798D03*
G01*
X7999399Y3514801D03*
D17*
G01*
X3338601Y3128390D03*
G01*
X4738598Y3128390D03*
D18*
G01*
X4388586Y3399383D03*
G01*
X4138599Y3399383D03*
G01*
X3938600Y3399383D03*
D19*
G01*
X3688588Y3399396D03*
D17*
G01*
X5091201Y3115690D03*
G01*
X6491198Y3115690D03*
D18*
G01*
X6141186Y3386683D03*
G01*
X5891199Y3386683D03*
G01*
X5691200Y3386683D03*
D19*
G01*
X5441188Y3386696D03*
D17*
G01*
X3684498Y5482209D03*
G01*
X2284501Y5482209D03*
D18*
G01*
X2634513Y5211216D03*
G01*
X2884500Y5211216D03*
G01*
X3084499Y5211216D03*
D20*
G01*
X3334511Y5211203D03*
D17*
G01*
X5602198Y5469509D03*
G01*
X4202201Y5469509D03*
D18*
G01*
X4552213Y5198516D03*
G01*
X4802200Y5198516D03*
G01*
X5002199Y5198516D03*
D20*
G01*
X5252211Y5198503D03*
M02*
