G04 Layer: TopSilkscreenLayer*
G04 EasyEDA v6.5.42, 2024-06-30 20:06:19*
G04 5c971d247c204a0cbf4ce5a758ce79e0,41c0ee39f02341fa96e3cac8100f2332,10*
G04 Gerber Generator version 0.2*
G04 Scale: 100 percent, Rotated: No, Reflected: No *
G04 Dimensions in millimeters *
G04 leading zeros omitted , absolute positions ,4 integer and 5 decimal *
%FSLAX45Y45*%
%MOMM*%

%ADD10C,0.2032*%
%ADD11C,0.1524*%
%ADD12C,0.1290*%
%ADD13C,0.1520*%
%ADD14C,0.2540*%
%ADD15C,0.3000*%
%ADD16C,0.0186*%

%LPD*%
G36*
X2795219Y4445711D02*
G01*
X2792780Y4444288D01*
X2790545Y4441494D01*
X2789682Y4438751D01*
X2789275Y4424832D01*
X2787142Y4409236D01*
X2784703Y4399991D01*
X2783128Y4394962D01*
X2779522Y4387189D01*
X2778048Y4384497D01*
X2774238Y4378807D01*
X2769514Y4373422D01*
X2763113Y4368088D01*
X2757119Y4364380D01*
X2752242Y4362450D01*
X2751785Y4361992D01*
X2743708Y4359605D01*
X2739085Y4359097D01*
X2736646Y4358487D01*
X2719781Y4358030D01*
X2717241Y4356557D01*
X2715463Y4354474D01*
X2714548Y4351985D01*
X2714040Y4351985D01*
X2714040Y4346295D01*
X2715006Y4345178D01*
X2715006Y4344162D01*
X2717088Y4341571D01*
X2719781Y4339996D01*
X2731973Y4339539D01*
X2740558Y4338878D01*
X2750820Y4336389D01*
X2752242Y4335526D01*
X2753004Y4335475D01*
X2754934Y4334408D01*
X2755595Y4334357D01*
X2764942Y4328566D01*
X2771800Y4322216D01*
X2777032Y4315206D01*
X2780944Y4308094D01*
X2784297Y4299610D01*
X2785618Y4294479D01*
X2786024Y4293870D01*
X2788259Y4283303D01*
X2788259Y4280255D01*
X2789021Y4275734D01*
X2789428Y4259834D01*
X2790545Y4256532D01*
X2792425Y4254042D01*
X2794508Y4252620D01*
X2797352Y4251960D01*
X2800604Y4252671D01*
X2801874Y4253738D01*
X2802331Y4253738D01*
X2804668Y4257141D01*
X2805531Y4260697D01*
X2805887Y4275734D01*
X2807055Y4284827D01*
X2807817Y4287621D01*
X2807817Y4289196D01*
X2809798Y4296765D01*
X2813405Y4306519D01*
X2813812Y4309821D01*
X2813507Y4312920D01*
X2812338Y4315206D01*
X2810611Y4317085D01*
X2808427Y4318304D01*
X2804972Y4318304D01*
X2802229Y4316780D01*
X2800400Y4314342D01*
X2797759Y4307941D01*
X2797251Y4308094D01*
X2793847Y4316069D01*
X2792069Y4319727D01*
X2788412Y4325975D01*
X2784754Y4331055D01*
X2779826Y4336745D01*
X2773883Y4342180D01*
X2769108Y4345635D01*
X2764078Y4348581D01*
X2764637Y4349750D01*
X2769616Y4352696D01*
X2775153Y4356963D01*
X2778099Y4359503D01*
X2784500Y4366615D01*
X2788767Y4372762D01*
X2791104Y4376572D01*
X2793847Y4381957D01*
X2797251Y4389882D01*
X2797708Y4390085D01*
X2800451Y4383379D01*
X2804210Y4375962D01*
X2806954Y4371340D01*
X2810865Y4366107D01*
X2815488Y4360824D01*
X2819857Y4356760D01*
X2825242Y4352696D01*
X2830118Y4349902D01*
X2830728Y4348988D01*
X2830728Y4348429D01*
X2827223Y4346498D01*
X2824378Y4343958D01*
X2824378Y4343400D01*
X2823311Y4341622D01*
X2823311Y4335932D01*
X2824480Y4333697D01*
X2826054Y4331868D01*
X2827629Y4330903D01*
X2830626Y4330192D01*
X2832506Y4330954D01*
X2833268Y4330954D01*
X2838958Y4334052D01*
X2842260Y4335526D01*
X2843072Y4335526D01*
X2844495Y4336389D01*
X2853080Y4338675D01*
X2862072Y4339488D01*
X2875076Y4339945D01*
X2877515Y4341215D01*
X2879801Y4344060D01*
X2880817Y4347565D01*
X2880817Y4350664D01*
X2879801Y4353864D01*
X2877820Y4356557D01*
X2874619Y4358233D01*
X2862630Y4358284D01*
X2856992Y4358741D01*
X2847695Y4360570D01*
X2838450Y4364024D01*
X2832811Y4367326D01*
X2828188Y4370832D01*
X2825496Y4373372D01*
X2819857Y4379976D01*
X2815793Y4386478D01*
X2812694Y4392879D01*
X2812694Y4393488D01*
X2811729Y4395571D01*
X2810002Y4400397D01*
X2808020Y4408779D01*
X2806801Y4415282D01*
X2806801Y4416653D01*
X2806090Y4419447D01*
X2805379Y4438192D01*
X2804617Y4441139D01*
X2802077Y4444339D01*
X2799537Y4445711D01*
G37*
G36*
X3029356Y4422444D02*
G01*
X3028137Y4422343D01*
X3025495Y4421530D01*
X3023666Y4420158D01*
X3021685Y4417771D01*
X3021685Y4417263D01*
X3020771Y4415790D01*
X3020415Y4413504D01*
X3020009Y4386224D01*
X3019501Y4377385D01*
X3017977Y4364177D01*
X3016758Y4357217D01*
X3016758Y4355693D01*
X3013913Y4341317D01*
X3012236Y4334103D01*
X3010916Y4329887D01*
X3010916Y4328820D01*
X3009950Y4326585D01*
X3009950Y4325620D01*
X3008020Y4319930D01*
X3008020Y4319320D01*
X3007004Y4317187D01*
X3007004Y4316476D01*
X3006039Y4314342D01*
X3006039Y4313580D01*
X2999943Y4299000D01*
X2996438Y4291990D01*
X2991256Y4282744D01*
X2989732Y4280509D01*
X2988970Y4278833D01*
X2982264Y4269486D01*
X2975051Y4260646D01*
X2964637Y4250436D01*
X2956864Y4244086D01*
X2945739Y4236669D01*
X2935020Y4230979D01*
X2934360Y4230979D01*
X2932430Y4229862D01*
X2931718Y4229811D01*
X2929737Y4228744D01*
X2929026Y4228693D01*
X2927807Y4227982D01*
X2912922Y4223105D01*
X2898749Y4219905D01*
X2892348Y4219346D01*
X2889707Y4218736D01*
X2880207Y4218127D01*
X2852775Y4217974D01*
X2850134Y4217263D01*
X2848152Y4216044D01*
X2846222Y4213809D01*
X2844800Y4210456D01*
X2844850Y4204411D01*
X2846120Y4201566D01*
X2848356Y4198975D01*
X2851861Y4197096D01*
X2880410Y4196943D01*
X2885338Y4196588D01*
X2888234Y4196080D01*
X2896565Y4195521D01*
X2898241Y4194911D01*
X2903118Y4194352D01*
X2912160Y4192270D01*
X2918764Y4190288D01*
X2932430Y4185310D01*
X2933903Y4184396D01*
X2934512Y4184396D01*
X2940202Y4181500D01*
X2945638Y4178401D01*
X2953359Y4173474D01*
X2962198Y4166717D01*
X2968853Y4160875D01*
X2971546Y4159199D01*
X2974187Y4158792D01*
X2976981Y4159656D01*
X2979369Y4161840D01*
X2980639Y4164533D01*
X2980944Y4167835D01*
X2980385Y4170781D01*
X2979318Y4172610D01*
X2976880Y4175302D01*
X2976575Y4175302D01*
X2967177Y4183430D01*
X2964637Y4185412D01*
X2954070Y4192422D01*
X2948990Y4195368D01*
X2938068Y4200652D01*
X2937103Y4201464D01*
X2936341Y4201464D01*
X2934360Y4202582D01*
X2933344Y4202582D01*
X2924454Y4205986D01*
X2923641Y4205986D01*
X2921101Y4207408D01*
X2921101Y4207967D01*
X2933141Y4212082D01*
X2934360Y4212793D01*
X2935122Y4212844D01*
X2937052Y4213910D01*
X2937814Y4213961D01*
X2939745Y4215079D01*
X2940253Y4215079D01*
X2950514Y4220413D01*
X2958287Y4225239D01*
X2963926Y4229100D01*
X2964180Y4229506D01*
X2968498Y4232452D01*
X2976626Y4239564D01*
X2984449Y4247388D01*
X2992272Y4256684D01*
X2997606Y4264050D01*
X3002280Y4271365D01*
X3006140Y4277918D01*
X3009239Y4283659D01*
X3014319Y4294479D01*
X3019704Y4307636D01*
X3019704Y4308398D01*
X3020669Y4310634D01*
X3020669Y4311446D01*
X3021431Y4312920D01*
X3023616Y4319574D01*
X3023616Y4320489D01*
X3025597Y4326839D01*
X3025597Y4327702D01*
X3026511Y4329988D01*
X3026562Y4331157D01*
X3027527Y4334459D01*
X3027527Y4335526D01*
X3028797Y4341215D01*
X3029204Y4341215D01*
X3030220Y4339234D01*
X3033014Y4326839D01*
X3035655Y4317492D01*
X3039211Y4307281D01*
X3039262Y4306620D01*
X3045612Y4291330D01*
X3051403Y4279646D01*
X3057194Y4269892D01*
X3060395Y4264914D01*
X3067507Y4255262D01*
X3074771Y4246727D01*
X3079648Y4241749D01*
X3090468Y4232249D01*
X3096717Y4227677D01*
X3106013Y4221784D01*
X3106724Y4221124D01*
X3121152Y4213961D01*
X3121761Y4213961D01*
X3125520Y4212183D01*
X3137865Y4207967D01*
X3137865Y4207510D01*
X3134360Y4205986D01*
X3133852Y4205986D01*
X3126282Y4203344D01*
X3125063Y4202582D01*
X3124352Y4202582D01*
X3122371Y4201464D01*
X3121660Y4201414D01*
X3119678Y4200347D01*
X3119018Y4200296D01*
X3106724Y4193844D01*
X3098190Y4188612D01*
X3097428Y4187799D01*
X3097123Y4187799D01*
X3090367Y4182922D01*
X3081477Y4175099D01*
X3075279Y4168952D01*
X3065932Y4158132D01*
X3061309Y4151782D01*
X3053892Y4140352D01*
X3046984Y4127042D01*
X3043529Y4119473D01*
X3039262Y4109059D01*
X3039262Y4108399D01*
X3038246Y4106265D01*
X3038246Y4105554D01*
X3037281Y4103319D01*
X3037281Y4102557D01*
X3036316Y4100474D01*
X3036316Y4099712D01*
X3035350Y4097477D01*
X3035300Y4096512D01*
X3034385Y4094226D01*
X3034334Y4093362D01*
X3032455Y4086809D01*
X3030169Y4076649D01*
X3029153Y4073906D01*
X3028746Y4073906D01*
X3024530Y4091940D01*
X3023616Y4094378D01*
X3023616Y4095191D01*
X3022650Y4097324D01*
X3022650Y4098086D01*
X3019704Y4106519D01*
X3019704Y4107230D01*
X3011627Y4126585D01*
X3005074Y4138676D01*
X3005074Y4138980D01*
X3002737Y4143044D01*
X3001264Y4144721D01*
X3000298Y4145483D01*
X2997860Y4146346D01*
X2995980Y4146346D01*
X2993237Y4145432D01*
X2990545Y4142181D01*
X2989884Y4139946D01*
X2989630Y4136339D01*
X2991713Y4131411D01*
X2995828Y4124198D01*
X2998470Y4118965D01*
X3004667Y4104589D01*
X3009493Y4090517D01*
X3011220Y4083710D01*
X3011881Y4081881D01*
X3011881Y4080764D01*
X3014319Y4071772D01*
X3017774Y4053027D01*
X3017774Y4050842D01*
X3019247Y4038549D01*
X3020263Y4020921D01*
X3020568Y3999890D01*
X3021685Y3997401D01*
X3023412Y3994962D01*
X3025444Y3993540D01*
X3028442Y3992676D01*
X3030321Y3992676D01*
X3033268Y3993692D01*
X3035249Y3995165D01*
X3036519Y3996893D01*
X3037789Y3999941D01*
X3038246Y4003294D01*
X3038297Y4023512D01*
X3039262Y4039108D01*
X3041396Y4057396D01*
X3044190Y4072331D01*
X3045104Y4075582D01*
X3045104Y4076446D01*
X3045917Y4079138D01*
X3046831Y4083304D01*
X3048050Y4087114D01*
X3048050Y4087977D01*
X3049016Y4090212D01*
X3049016Y4091381D01*
X3049981Y4093616D01*
X3049981Y4094784D01*
X3050641Y4095902D01*
X3053384Y4103878D01*
X3055264Y4108704D01*
X3060141Y4119473D01*
X3064611Y4127855D01*
X3064611Y4128160D01*
X3067862Y4133697D01*
X3075584Y4144924D01*
X3083763Y4154932D01*
X3095599Y4166209D01*
X3095853Y4166209D01*
X3105200Y4173524D01*
X3116580Y4180484D01*
X3124200Y4184396D01*
X3124809Y4184446D01*
X3126790Y4185513D01*
X3127451Y4185564D01*
X3130042Y4186834D01*
X3135477Y4188968D01*
X3136544Y4188968D01*
X3138017Y4189831D01*
X3155543Y4194352D01*
X3161436Y4194962D01*
X3163163Y4195470D01*
X3169259Y4196080D01*
X3171190Y4196588D01*
X3187547Y4197197D01*
X3206902Y4197045D01*
X3207562Y4197705D01*
X3209645Y4198416D01*
X3212287Y4201160D01*
X3213557Y4204309D01*
X3214065Y4204309D01*
X3214065Y4210812D01*
X3213557Y4210812D01*
X3212846Y4212793D01*
X3211677Y4214774D01*
X3208578Y4217263D01*
X3204413Y4218178D01*
X3173628Y4218533D01*
X3164382Y4219651D01*
X3154476Y4221327D01*
X3140303Y4224832D01*
X3126028Y4230166D01*
X3124758Y4230979D01*
X3124098Y4231030D01*
X3122117Y4232097D01*
X3121507Y4232148D01*
X3119678Y4233265D01*
X3119170Y4233265D01*
X3107232Y4240276D01*
X3104794Y4242054D01*
X3103778Y4242562D01*
X3103168Y4243476D01*
X3102762Y4243476D01*
X3096006Y4248556D01*
X3087420Y4256684D01*
X3083052Y4261256D01*
X3074619Y4271772D01*
X3068777Y4280255D01*
X3063290Y4289755D01*
X3059226Y4297883D01*
X3054654Y4308500D01*
X3051200Y4317746D01*
X3047542Y4329988D01*
X3043377Y4346549D01*
X3042970Y4350156D01*
X3042158Y4353509D01*
X3042158Y4354880D01*
X3040430Y4364329D01*
X3039973Y4370781D01*
X3039465Y4373168D01*
X3038449Y4386529D01*
X3038144Y4414621D01*
X3037281Y4416348D01*
X3037281Y4416958D01*
X3035096Y4420108D01*
X3032455Y4421835D01*
G37*
G36*
X2881426Y4139488D02*
G01*
X2878531Y4138676D01*
X2876956Y4137253D01*
X2875381Y4135374D01*
X2874264Y4132529D01*
X2874010Y4120642D01*
X2873197Y4111802D01*
X2872232Y4106570D01*
X2872232Y4104792D01*
X2869285Y4093057D01*
X2868320Y4090619D01*
X2868320Y4090060D01*
X2865120Y4082592D01*
X2863342Y4079138D01*
X2858465Y4071772D01*
X2853029Y4065778D01*
X2848406Y4062018D01*
X2840278Y4057142D01*
X2839516Y4057142D01*
X2837586Y4056024D01*
X2836722Y4055973D01*
X2835300Y4055110D01*
X2826715Y4052874D01*
X2818180Y4052062D01*
X2804464Y4051554D01*
X2801924Y4050029D01*
X2800451Y4048556D01*
X2798927Y4045356D01*
X2798927Y4039666D01*
X2800146Y4037076D01*
X2802178Y4034739D01*
X2804972Y4033367D01*
X2821584Y4033012D01*
X2823311Y4032453D01*
X2827223Y4032097D01*
X2835503Y4029811D01*
X2840380Y4027627D01*
X2840786Y4027627D01*
X2848813Y4022750D01*
X2853588Y4018534D01*
X2858516Y4013250D01*
X2862478Y4007459D01*
X2864561Y4003598D01*
X2869285Y3991965D01*
X2872232Y3980434D01*
X2872232Y3978300D01*
X2872994Y3974896D01*
X2873756Y3966972D01*
X2874213Y3952443D01*
X2875432Y3949344D01*
X2877261Y3947160D01*
X2879852Y3945737D01*
X2884424Y3945737D01*
X2886811Y3947160D01*
X2888589Y3949344D01*
X2889808Y3952087D01*
X2889859Y3957015D01*
X2891028Y3973220D01*
X2891790Y3977182D01*
X2891790Y3979265D01*
X2892755Y3982770D01*
X2892755Y3983431D01*
X2895193Y3992575D01*
X2900019Y4004259D01*
X2902661Y4008983D01*
X2905912Y4013555D01*
X2909468Y4017568D01*
X2913888Y4021531D01*
X2920238Y4025900D01*
X2928061Y4029608D01*
X2935122Y4031589D01*
X2943860Y4033012D01*
X2959303Y4033367D01*
X2961741Y4034536D01*
X2963214Y4035907D01*
X2964840Y4038752D01*
X2965450Y4042003D01*
X2965043Y4045813D01*
X2963570Y4048760D01*
X2961944Y4050233D01*
X2959760Y4051554D01*
X2945384Y4052011D01*
X2940913Y4052570D01*
X2938627Y4052570D01*
X2930245Y4054805D01*
X2924962Y4056735D01*
X2918256Y4060291D01*
X2915564Y4061002D01*
X2912414Y4060494D01*
X2910687Y4059326D01*
X2908604Y4056634D01*
X2907842Y4053027D01*
X2908147Y4050080D01*
X2909417Y4047337D01*
X2911449Y4045204D01*
X2915462Y4042918D01*
X2914954Y4041800D01*
X2911195Y4039615D01*
X2907284Y4036923D01*
X2900934Y4031538D01*
X2896108Y4026306D01*
X2891332Y4019753D01*
X2887421Y4012996D01*
X2885440Y4008983D01*
X2883001Y4003040D01*
X2882696Y4001770D01*
X2882087Y4001770D01*
X2881020Y4002887D01*
X2881020Y4003649D01*
X2879039Y4008424D01*
X2875889Y4014673D01*
X2873044Y4019397D01*
X2869031Y4025087D01*
X2864053Y4030675D01*
X2859684Y4034790D01*
X2854299Y4038854D01*
X2849321Y4041648D01*
X2848762Y4043070D01*
X2853791Y4045915D01*
X2860598Y4051147D01*
X2865069Y4055414D01*
X2871165Y4062984D01*
X2873146Y4065778D01*
X2877362Y4073245D01*
X2881020Y4081322D01*
X2881020Y4082135D01*
X2882036Y4083304D01*
X2882696Y4083304D01*
X2883052Y4081983D01*
X2884982Y4077157D01*
X2886862Y4074566D01*
X2889402Y4073042D01*
X2893314Y4073042D01*
X2895447Y4074261D01*
X2897327Y4076446D01*
X2898597Y4079544D01*
X2898597Y4082592D01*
X2894939Y4093514D01*
X2893314Y4099051D01*
X2890824Y4111548D01*
X2890266Y4117797D01*
X2889859Y4132834D01*
X2888589Y4135678D01*
X2887268Y4137304D01*
X2885338Y4138777D01*
X2882392Y4139488D01*
G37*
D10*
X2108200Y4472178D02*
G01*
X2108200Y4333747D01*
X2117343Y4306062D01*
X2135886Y4287520D01*
X2163572Y4278376D01*
X2182113Y4278376D01*
X2209800Y4287520D01*
X2228341Y4306062D01*
X2237486Y4333747D01*
X2237486Y4472178D01*
X2427731Y4444492D02*
G01*
X2409190Y4463034D01*
X2381504Y4472178D01*
X2344674Y4472178D01*
X2316988Y4463034D01*
X2298445Y4444492D01*
X2298445Y4425950D01*
X2307590Y4407662D01*
X2316988Y4398263D01*
X2335529Y4389120D01*
X2390902Y4370578D01*
X2409190Y4361434D01*
X2418588Y4352289D01*
X2427731Y4333747D01*
X2427731Y4306062D01*
X2409190Y4287520D01*
X2381504Y4278376D01*
X2344674Y4278376D01*
X2316988Y4287520D01*
X2298445Y4306062D01*
X2488691Y4472178D02*
G01*
X2488691Y4278376D01*
X2488691Y4472178D02*
G01*
X2571750Y4472178D01*
X2599690Y4463034D01*
X2608834Y4453889D01*
X2617977Y4435347D01*
X2617977Y4416805D01*
X2608834Y4398263D01*
X2599690Y4389120D01*
X2571750Y4379976D01*
X2488691Y4379976D02*
G01*
X2571750Y4379976D01*
X2599690Y4370578D01*
X2608834Y4361434D01*
X2617977Y4342892D01*
X2617977Y4315205D01*
X2608834Y4296663D01*
X2599690Y4287520D01*
X2571750Y4278376D01*
X2488691Y4278376D01*
X2108200Y4167378D02*
G01*
X2108200Y3973576D01*
X2237486Y4167378D02*
G01*
X2237486Y3973576D01*
X2108200Y4075176D02*
G01*
X2237486Y4075176D01*
X2298445Y4167378D02*
G01*
X2298445Y4028947D01*
X2307590Y4001262D01*
X2326131Y3982720D01*
X2353818Y3973576D01*
X2372359Y3973576D01*
X2400045Y3982720D01*
X2418588Y4001262D01*
X2427731Y4028947D01*
X2427731Y4167378D01*
X2488691Y4167378D02*
G01*
X2488691Y3973576D01*
X2488691Y4167378D02*
G01*
X2571750Y4167378D01*
X2599690Y4158234D01*
X2608834Y4149089D01*
X2617977Y4130547D01*
X2617977Y4112005D01*
X2608834Y4093463D01*
X2599690Y4084320D01*
X2571750Y4075176D01*
X2488691Y4075176D02*
G01*
X2571750Y4075176D01*
X2599690Y4065778D01*
X2608834Y4056634D01*
X2617977Y4038092D01*
X2617977Y4010405D01*
X2608834Y3991863D01*
X2599690Y3982720D01*
X2571750Y3973576D01*
X2488691Y3973576D01*
D11*
X7060691Y4535678D02*
G01*
X7050277Y4530344D01*
X7039863Y4519929D01*
X7034784Y4509770D01*
X7034784Y4488942D01*
X7039863Y4478528D01*
X7050277Y4468113D01*
X7060691Y4462779D01*
X7076440Y4457700D01*
X7102347Y4457700D01*
X7117841Y4462779D01*
X7128256Y4468113D01*
X7138670Y4478528D01*
X7143750Y4488942D01*
X7143750Y4509770D01*
X7138670Y4519929D01*
X7128256Y4530344D01*
X7117841Y4535678D01*
X7055611Y4569968D02*
G01*
X7050277Y4580381D01*
X7034784Y4595876D01*
X7143750Y4595876D01*
X3541522Y3504692D02*
G01*
X3546856Y3494278D01*
X3557270Y3483863D01*
X3567429Y3478784D01*
X3588258Y3478784D01*
X3598672Y3483863D01*
X3609086Y3494278D01*
X3614420Y3504692D01*
X3619500Y3520439D01*
X3619500Y3546347D01*
X3614420Y3561842D01*
X3609086Y3572255D01*
X3598672Y3582670D01*
X3588258Y3587750D01*
X3567429Y3587750D01*
X3557270Y3582670D01*
X3546856Y3572255D01*
X3541522Y3561842D01*
X3502152Y3504692D02*
G01*
X3502152Y3499612D01*
X3496818Y3489197D01*
X3491738Y3483863D01*
X3481324Y3478784D01*
X3460495Y3478784D01*
X3450081Y3483863D01*
X3445002Y3489197D01*
X3439668Y3499612D01*
X3439668Y3510026D01*
X3445002Y3520439D01*
X3455415Y3535934D01*
X3507231Y3587750D01*
X3434588Y3587750D01*
X5167122Y3504692D02*
G01*
X5172456Y3494278D01*
X5182870Y3483863D01*
X5193029Y3478784D01*
X5213858Y3478784D01*
X5224272Y3483863D01*
X5234686Y3494278D01*
X5240020Y3504692D01*
X5245100Y3520439D01*
X5245100Y3546347D01*
X5240020Y3561842D01*
X5234686Y3572255D01*
X5224272Y3582670D01*
X5213858Y3587750D01*
X5193029Y3587750D01*
X5182870Y3582670D01*
X5172456Y3572255D01*
X5167122Y3561842D01*
X5122418Y3478784D02*
G01*
X5065268Y3478784D01*
X5096509Y3520439D01*
X5081015Y3520439D01*
X5070602Y3525520D01*
X5065268Y3530600D01*
X5060188Y3546347D01*
X5060188Y3556762D01*
X5065268Y3572255D01*
X5075681Y3582670D01*
X5091429Y3587750D01*
X5106924Y3587750D01*
X5122418Y3582670D01*
X5127752Y3577589D01*
X5132831Y3567176D01*
X3784091Y5284978D02*
G01*
X3773677Y5279644D01*
X3763263Y5269229D01*
X3758184Y5259070D01*
X3758184Y5238242D01*
X3763263Y5227828D01*
X3773677Y5217413D01*
X3784091Y5212079D01*
X3799840Y5207000D01*
X3825747Y5207000D01*
X3841241Y5212079D01*
X3851656Y5217413D01*
X3862070Y5227828D01*
X3867150Y5238242D01*
X3867150Y5259070D01*
X3862070Y5269229D01*
X3851656Y5279644D01*
X3841241Y5284978D01*
X3758184Y5371084D02*
G01*
X3830827Y5319268D01*
X3830827Y5397245D01*
X3758184Y5371084D02*
G01*
X3867150Y5371084D01*
X5676391Y5234178D02*
G01*
X5665977Y5228844D01*
X5655563Y5218429D01*
X5650484Y5208270D01*
X5650484Y5187442D01*
X5655563Y5177028D01*
X5665977Y5166613D01*
X5676391Y5161279D01*
X5692140Y5156200D01*
X5718047Y5156200D01*
X5733541Y5161279D01*
X5743956Y5166613D01*
X5754370Y5177028D01*
X5759450Y5187442D01*
X5759450Y5208270D01*
X5754370Y5218429D01*
X5743956Y5228844D01*
X5733541Y5234178D01*
X5650484Y5330697D02*
G01*
X5650484Y5278881D01*
X5697220Y5273547D01*
X5692140Y5278881D01*
X5686806Y5294376D01*
X5686806Y5309870D01*
X5692140Y5325618D01*
X5702300Y5336031D01*
X5718047Y5341112D01*
X5728461Y5341112D01*
X5743956Y5336031D01*
X5754370Y5325618D01*
X5759450Y5309870D01*
X5759450Y5294376D01*
X5754370Y5278881D01*
X5749290Y5273547D01*
X5738875Y5268468D01*
X6974077Y4699507D02*
G01*
X6968743Y4709921D01*
X6958329Y4720336D01*
X6948170Y4725415D01*
X6927341Y4725415D01*
X6916927Y4720336D01*
X6906513Y4709921D01*
X6901179Y4699507D01*
X6896100Y4683760D01*
X6896100Y4657852D01*
X6901179Y4642357D01*
X6906513Y4631944D01*
X6916927Y4621529D01*
X6927341Y4616450D01*
X6948170Y4616450D01*
X6958329Y4621529D01*
X6968743Y4631944D01*
X6974077Y4642357D01*
X7070597Y4709921D02*
G01*
X7065518Y4720336D01*
X7049770Y4725415D01*
X7039609Y4725415D01*
X7023861Y4720336D01*
X7013447Y4704587D01*
X7008368Y4678679D01*
X7008368Y4652771D01*
X7013447Y4631944D01*
X7023861Y4621529D01*
X7039609Y4616450D01*
X7044690Y4616450D01*
X7060184Y4621529D01*
X7070597Y4631944D01*
X7075931Y4647437D01*
X7075931Y4652771D01*
X7070597Y4668265D01*
X7060184Y4678679D01*
X7044690Y4683760D01*
X7039609Y4683760D01*
X7023861Y4678679D01*
X7013447Y4668265D01*
X7008368Y4652771D01*
X6974077Y4559807D02*
G01*
X6968743Y4570221D01*
X6958329Y4580636D01*
X6948170Y4585715D01*
X6927341Y4585715D01*
X6916927Y4580636D01*
X6906513Y4570221D01*
X6901179Y4559807D01*
X6896100Y4544060D01*
X6896100Y4518152D01*
X6901179Y4502657D01*
X6906513Y4492244D01*
X6916927Y4481829D01*
X6927341Y4476750D01*
X6948170Y4476750D01*
X6958329Y4481829D01*
X6968743Y4492244D01*
X6974077Y4502657D01*
X7081011Y4585715D02*
G01*
X7029195Y4476750D01*
X7008368Y4585715D02*
G01*
X7081011Y4585715D01*
X7089101Y4395215D02*
G01*
X7089101Y4286250D01*
X7089101Y4395215D02*
G01*
X7125423Y4395215D01*
X7141171Y4390136D01*
X7151331Y4379721D01*
X7156665Y4369307D01*
X7161745Y4353560D01*
X7161745Y4327652D01*
X7156665Y4312157D01*
X7151331Y4301744D01*
X7141171Y4291329D01*
X7125423Y4286250D01*
X7089101Y4286250D01*
X7196035Y4374387D02*
G01*
X7206449Y4379721D01*
X7222197Y4395215D01*
X7222197Y4286250D01*
X6770115Y4368800D02*
G01*
X6692138Y4368800D01*
X6676643Y4363720D01*
X6666229Y4353305D01*
X6661150Y4337557D01*
X6661150Y4327144D01*
X6666229Y4311650D01*
X6676643Y4301236D01*
X6692138Y4296155D01*
X6770115Y4296155D01*
X6749288Y4261865D02*
G01*
X6754622Y4251452D01*
X6770115Y4235704D01*
X6661150Y4235704D01*
X7535783Y4114098D02*
G01*
X7613761Y4114098D01*
X7629255Y4119178D01*
X7639669Y4129592D01*
X7644749Y4145340D01*
X7644749Y4155754D01*
X7639669Y4171248D01*
X7629255Y4181662D01*
X7613761Y4186742D01*
X7535783Y4186742D01*
X7551277Y4293930D02*
G01*
X7540863Y4283516D01*
X7535783Y4267768D01*
X7535783Y4247194D01*
X7540863Y4231446D01*
X7551277Y4221032D01*
X7561691Y4221032D01*
X7572105Y4226366D01*
X7577439Y4231446D01*
X7582519Y4241860D01*
X7592933Y4273102D01*
X7598013Y4283516D01*
X7603347Y4288596D01*
X7613761Y4293930D01*
X7629255Y4293930D01*
X7639669Y4283516D01*
X7644749Y4267768D01*
X7644749Y4247194D01*
X7639669Y4231446D01*
X7629255Y4221032D01*
X7535783Y4328220D02*
G01*
X7644749Y4328220D01*
X7535783Y4328220D02*
G01*
X7535783Y4374956D01*
X7540863Y4390450D01*
X7546197Y4395784D01*
X7556611Y4400864D01*
X7567025Y4400864D01*
X7577439Y4395784D01*
X7582519Y4390450D01*
X7587599Y4374956D01*
X7587599Y4328220D02*
G01*
X7587599Y4374956D01*
X7592933Y4390450D01*
X7598013Y4395784D01*
X7608427Y4400864D01*
X7624175Y4400864D01*
X7634589Y4395784D01*
X7639669Y4390450D01*
X7644749Y4374956D01*
X7644749Y4328220D01*
X7556611Y4435154D02*
G01*
X7551277Y4445568D01*
X7535783Y4461062D01*
X7644749Y4461062D01*
X4024401Y3726319D02*
G01*
X4024401Y3648341D01*
X4029481Y3632847D01*
X4039895Y3622433D01*
X4055643Y3617353D01*
X4066057Y3617353D01*
X4081551Y3622433D01*
X4091965Y3632847D01*
X4097045Y3648341D01*
X4097045Y3726319D01*
X4204233Y3710825D02*
G01*
X4193819Y3721239D01*
X4178071Y3726319D01*
X4157497Y3726319D01*
X4141749Y3721239D01*
X4131335Y3710825D01*
X4131335Y3700411D01*
X4136669Y3689997D01*
X4141749Y3684663D01*
X4152163Y3679583D01*
X4183405Y3669169D01*
X4193819Y3664089D01*
X4198899Y3658755D01*
X4204233Y3648341D01*
X4204233Y3632847D01*
X4193819Y3622433D01*
X4178071Y3617353D01*
X4157497Y3617353D01*
X4141749Y3622433D01*
X4131335Y3632847D01*
X4238523Y3726319D02*
G01*
X4238523Y3617353D01*
X4238523Y3726319D02*
G01*
X4285259Y3726319D01*
X4300753Y3721239D01*
X4306087Y3715905D01*
X4311167Y3705491D01*
X4311167Y3695077D01*
X4306087Y3684663D01*
X4300753Y3679583D01*
X4285259Y3674503D01*
X4238523Y3674503D02*
G01*
X4285259Y3674503D01*
X4300753Y3669169D01*
X4306087Y3664089D01*
X4311167Y3653675D01*
X4311167Y3637927D01*
X4306087Y3627513D01*
X4300753Y3622433D01*
X4285259Y3617353D01*
X4238523Y3617353D01*
X4350791Y3700411D02*
G01*
X4350791Y3705491D01*
X4355871Y3715905D01*
X4360951Y3721239D01*
X4371365Y3726319D01*
X4392193Y3726319D01*
X4402607Y3721239D01*
X4407941Y3715905D01*
X4413021Y3705491D01*
X4413021Y3695077D01*
X4407941Y3684663D01*
X4397527Y3669169D01*
X4345457Y3617353D01*
X4418101Y3617353D01*
X5777001Y3713619D02*
G01*
X5777001Y3635641D01*
X5782081Y3620147D01*
X5792495Y3609733D01*
X5808243Y3604653D01*
X5818657Y3604653D01*
X5834151Y3609733D01*
X5844565Y3620147D01*
X5849645Y3635641D01*
X5849645Y3713619D01*
X5956833Y3698125D02*
G01*
X5946419Y3708539D01*
X5930671Y3713619D01*
X5910097Y3713619D01*
X5894349Y3708539D01*
X5883935Y3698125D01*
X5883935Y3687711D01*
X5889269Y3677297D01*
X5894349Y3671963D01*
X5904763Y3666883D01*
X5936005Y3656469D01*
X5946419Y3651389D01*
X5951499Y3646055D01*
X5956833Y3635641D01*
X5956833Y3620147D01*
X5946419Y3609733D01*
X5930671Y3604653D01*
X5910097Y3604653D01*
X5894349Y3609733D01*
X5883935Y3620147D01*
X5991123Y3713619D02*
G01*
X5991123Y3604653D01*
X5991123Y3713619D02*
G01*
X6037859Y3713619D01*
X6053353Y3708539D01*
X6058687Y3703205D01*
X6063767Y3692791D01*
X6063767Y3682377D01*
X6058687Y3671963D01*
X6053353Y3666883D01*
X6037859Y3661803D01*
X5991123Y3661803D02*
G01*
X6037859Y3661803D01*
X6053353Y3656469D01*
X6058687Y3651389D01*
X6063767Y3640975D01*
X6063767Y3625227D01*
X6058687Y3614813D01*
X6053353Y3609733D01*
X6037859Y3604653D01*
X5991123Y3604653D01*
X6108471Y3713619D02*
G01*
X6165621Y3713619D01*
X6134379Y3671963D01*
X6150127Y3671963D01*
X6160541Y3666883D01*
X6165621Y3661803D01*
X6170701Y3646055D01*
X6170701Y3635641D01*
X6165621Y3620147D01*
X6155207Y3609733D01*
X6139713Y3604653D01*
X6123965Y3604653D01*
X6108471Y3609733D01*
X6103391Y3614813D01*
X6098057Y3625227D01*
X2998698Y4884280D02*
G01*
X2998698Y4962258D01*
X2993618Y4977752D01*
X2983204Y4988166D01*
X2967456Y4993246D01*
X2957042Y4993246D01*
X2941548Y4988166D01*
X2931134Y4977752D01*
X2926054Y4962258D01*
X2926054Y4884280D01*
X2818866Y4899774D02*
G01*
X2829280Y4889360D01*
X2845028Y4884280D01*
X2865602Y4884280D01*
X2881350Y4889360D01*
X2891764Y4899774D01*
X2891764Y4910188D01*
X2886430Y4920602D01*
X2881350Y4925936D01*
X2870936Y4931016D01*
X2839694Y4941430D01*
X2829280Y4946510D01*
X2824200Y4951844D01*
X2818866Y4962258D01*
X2818866Y4977752D01*
X2829280Y4988166D01*
X2845028Y4993246D01*
X2865602Y4993246D01*
X2881350Y4988166D01*
X2891764Y4977752D01*
X2784576Y4884280D02*
G01*
X2784576Y4993246D01*
X2784576Y4884280D02*
G01*
X2737840Y4884280D01*
X2722346Y4889360D01*
X2717012Y4894694D01*
X2711932Y4905108D01*
X2711932Y4915522D01*
X2717012Y4925936D01*
X2722346Y4931016D01*
X2737840Y4936096D01*
X2784576Y4936096D02*
G01*
X2737840Y4936096D01*
X2722346Y4941430D01*
X2717012Y4946510D01*
X2711932Y4956924D01*
X2711932Y4972672D01*
X2717012Y4983086D01*
X2722346Y4988166D01*
X2737840Y4993246D01*
X2784576Y4993246D01*
X2625572Y4884280D02*
G01*
X2677642Y4956924D01*
X2599664Y4956924D01*
X2625572Y4884280D02*
G01*
X2625572Y4993246D01*
X4916398Y4871580D02*
G01*
X4916398Y4949558D01*
X4911318Y4965052D01*
X4900904Y4975466D01*
X4885156Y4980546D01*
X4874742Y4980546D01*
X4859248Y4975466D01*
X4848834Y4965052D01*
X4843754Y4949558D01*
X4843754Y4871580D01*
X4736566Y4887074D02*
G01*
X4746980Y4876660D01*
X4762728Y4871580D01*
X4783302Y4871580D01*
X4799050Y4876660D01*
X4809464Y4887074D01*
X4809464Y4897488D01*
X4804130Y4907902D01*
X4799050Y4913236D01*
X4788636Y4918316D01*
X4757394Y4928730D01*
X4746980Y4933810D01*
X4741900Y4939144D01*
X4736566Y4949558D01*
X4736566Y4965052D01*
X4746980Y4975466D01*
X4762728Y4980546D01*
X4783302Y4980546D01*
X4799050Y4975466D01*
X4809464Y4965052D01*
X4702276Y4871580D02*
G01*
X4702276Y4980546D01*
X4702276Y4871580D02*
G01*
X4655540Y4871580D01*
X4640046Y4876660D01*
X4634712Y4881994D01*
X4629632Y4892408D01*
X4629632Y4902822D01*
X4634712Y4913236D01*
X4640046Y4918316D01*
X4655540Y4923396D01*
X4702276Y4923396D02*
G01*
X4655540Y4923396D01*
X4640046Y4928730D01*
X4634712Y4933810D01*
X4629632Y4944224D01*
X4629632Y4959972D01*
X4634712Y4970386D01*
X4640046Y4975466D01*
X4655540Y4980546D01*
X4702276Y4980546D01*
X4532858Y4871580D02*
G01*
X4584928Y4871580D01*
X4590008Y4918316D01*
X4584928Y4913236D01*
X4569434Y4907902D01*
X4553686Y4907902D01*
X4538192Y4913236D01*
X4527778Y4923396D01*
X4522698Y4939144D01*
X4522698Y4949558D01*
X4527778Y4965052D01*
X4538192Y4975466D01*
X4553686Y4980546D01*
X4569434Y4980546D01*
X4584928Y4975466D01*
X4590008Y4970386D01*
X4595342Y4959972D01*
G36*
X7003999Y4233164D02*
G01*
X7003999Y4197908D01*
X7034479Y4197908D01*
X7034479Y4233164D01*
G37*
G36*
X7003999Y4107891D02*
G01*
X7003999Y4072636D01*
X7034479Y4072636D01*
X7034479Y4107891D01*
G37*
D12*
X7267702Y4514595D02*
G01*
X7184897Y4514595D01*
X7187691Y4400804D02*
G01*
X7267702Y4400804D01*
X7184897Y4375150D02*
G01*
X7184897Y4540250D01*
X7184897Y4540250D02*
G01*
X7267702Y4540250D01*
X7267702Y4540250D02*
G01*
X7267702Y4375150D01*
X7267702Y4375150D02*
G01*
X7184897Y4375150D01*
X3562604Y3711702D02*
G01*
X3562604Y3628897D01*
X3676395Y3631692D02*
G01*
X3676395Y3711702D01*
X3702050Y3628897D02*
G01*
X3536950Y3628897D01*
X3536950Y3628897D02*
G01*
X3536950Y3711702D01*
X3536950Y3711702D02*
G01*
X3702050Y3711702D01*
X3702050Y3711702D02*
G01*
X3702050Y3628897D01*
X5188204Y3711702D02*
G01*
X5188204Y3628897D01*
X5301995Y3631692D02*
G01*
X5301995Y3711702D01*
X5327650Y3628897D02*
G01*
X5162550Y3628897D01*
X5162550Y3628897D02*
G01*
X5162550Y3711702D01*
X5162550Y3711702D02*
G01*
X5327650Y3711702D01*
X5327650Y3711702D02*
G01*
X5327650Y3628897D01*
X3991102Y5263895D02*
G01*
X3908297Y5263895D01*
X3911091Y5150104D02*
G01*
X3991102Y5150104D01*
X3908297Y5124450D02*
G01*
X3908297Y5289550D01*
X3908297Y5289550D02*
G01*
X3991102Y5289550D01*
X3991102Y5289550D02*
G01*
X3991102Y5124450D01*
X3991102Y5124450D02*
G01*
X3908297Y5124450D01*
X5883402Y5213095D02*
G01*
X5800597Y5213095D01*
X5803391Y5099304D02*
G01*
X5883402Y5099304D01*
X5800597Y5073650D02*
G01*
X5800597Y5238750D01*
X5800597Y5238750D02*
G01*
X5883402Y5238750D01*
X5883402Y5238750D02*
G01*
X5883402Y5073650D01*
X5883402Y5073650D02*
G01*
X5800597Y5073650D01*
X6952995Y4492497D02*
G01*
X6952995Y4575302D01*
X6839204Y4572507D02*
G01*
X6839204Y4492497D01*
X6813550Y4575302D02*
G01*
X6978650Y4575302D01*
X6978650Y4575302D02*
G01*
X6978650Y4492497D01*
X6978650Y4492497D02*
G01*
X6813550Y4492497D01*
X6813550Y4492497D02*
G01*
X6813550Y4575302D01*
X6952995Y4352797D02*
G01*
X6952995Y4435602D01*
X6839204Y4432807D02*
G01*
X6839204Y4352797D01*
X6813550Y4435602D02*
G01*
X6978650Y4435602D01*
X6978650Y4435602D02*
G01*
X6978650Y4352797D01*
X6978650Y4352797D02*
G01*
X6813550Y4352797D01*
X6813550Y4352797D02*
G01*
X6813550Y4435602D01*
D13*
X7202124Y4080278D02*
G01*
X7202124Y4100901D01*
X7202124Y4225521D02*
G01*
X7202124Y4205899D01*
D11*
X7026879Y4225521D02*
G01*
X7202124Y4225521D01*
X7026879Y4080278D02*
G01*
X7202124Y4080278D01*
X7067323Y4225521D02*
G01*
X7067323Y4080278D01*
X6071260Y4851019D02*
G01*
X6425539Y4851019D01*
X6425539Y3835780D01*
X6071260Y3835780D01*
X6071260Y4851019D01*
D14*
X9759609Y3501044D02*
G01*
X8299399Y3501044D01*
X8299401Y4726538D01*
X9759609Y4726538D01*
X8172513Y4714798D02*
G01*
X9779396Y4714798D01*
X8172513Y3514801D02*
G01*
X9779396Y3514801D01*
X9779396Y4714798D01*
X7899400Y3691699D02*
G01*
X7899400Y3656053D01*
X7899400Y3941686D02*
G01*
X7899400Y3837927D01*
X7899400Y4141685D02*
G01*
X7899400Y4087914D01*
X7899400Y4391698D02*
G01*
X7899400Y4287913D01*
X7899400Y4554799D02*
G01*
X7899400Y4537925D01*
X7899400Y4554799D02*
G01*
X7899400Y4573546D01*
X4409424Y2794876D02*
G01*
X4351009Y2289411D01*
X4165587Y2289411D01*
X4107421Y2794111D01*
X4140697Y2796654D01*
X4206224Y2340211D01*
X4300209Y2340211D01*
X4378944Y2799953D01*
X4409424Y2794876D01*
X4150344Y2703433D02*
G01*
X4358624Y2703433D01*
X4183367Y2528176D02*
G01*
X4328144Y2528176D01*
X3736324Y2523096D02*
G01*
X3881109Y2523096D01*
X3703309Y2698353D02*
G01*
X3911587Y2698353D01*
X3962387Y2789796D02*
G01*
X3931909Y2794876D01*
X3853167Y2335133D01*
X3759187Y2335133D01*
X3693655Y2791569D01*
X3660378Y2789034D01*
X3718544Y2284333D01*
X3903967Y2284333D01*
X3962387Y2789796D01*
X3327400Y3551796D02*
G01*
X4749800Y3551796D01*
X4749800Y2129396D01*
X3327400Y2129396D01*
X3327400Y3551796D01*
X6162024Y2782176D02*
G01*
X6103609Y2276711D01*
X5918187Y2276711D01*
X5860021Y2781411D01*
X5893297Y2783954D01*
X5958824Y2327511D01*
X6052809Y2327511D01*
X6131544Y2787253D01*
X6162024Y2782176D01*
X5902944Y2690733D02*
G01*
X6111224Y2690733D01*
X5935967Y2515476D02*
G01*
X6080744Y2515476D01*
X5488924Y2510396D02*
G01*
X5633709Y2510396D01*
X5455909Y2685653D02*
G01*
X5664187Y2685653D01*
X5714987Y2777096D02*
G01*
X5684509Y2782176D01*
X5605767Y2322433D01*
X5511787Y2322433D01*
X5446255Y2778869D01*
X5412978Y2776334D01*
X5471144Y2271633D01*
X5656567Y2271633D01*
X5714987Y2777096D01*
X5080000Y3539096D02*
G01*
X6502400Y3539096D01*
X6502400Y2116696D01*
X5080000Y2116696D01*
X5080000Y3539096D01*
X2613675Y5815723D02*
G01*
X2672090Y6321188D01*
X2857512Y6321188D01*
X2915678Y5816488D01*
X2882402Y5813945D01*
X2816875Y6270388D01*
X2722890Y6270388D01*
X2644155Y5810646D01*
X2613675Y5815723D01*
X2872755Y5907166D02*
G01*
X2664475Y5907166D01*
X2839732Y6082423D02*
G01*
X2694955Y6082423D01*
X3286775Y6087503D02*
G01*
X3141990Y6087503D01*
X3319790Y5912246D02*
G01*
X3111512Y5912246D01*
X3060712Y5820803D02*
G01*
X3091190Y5815723D01*
X3169932Y6275466D01*
X3263912Y6275466D01*
X3329444Y5819030D01*
X3362721Y5821565D01*
X3304555Y6326266D01*
X3119132Y6326266D01*
X3060712Y5820803D01*
X3695700Y5058803D02*
G01*
X2273300Y5058803D01*
X2273300Y6481203D01*
X3695700Y6481203D01*
X3695700Y5058803D01*
X4531375Y5803023D02*
G01*
X4589790Y6308488D01*
X4775212Y6308488D01*
X4833378Y5803788D01*
X4800102Y5801245D01*
X4734575Y6257688D01*
X4640590Y6257688D01*
X4561855Y5797946D01*
X4531375Y5803023D01*
X4790455Y5894466D02*
G01*
X4582175Y5894466D01*
X4757432Y6069723D02*
G01*
X4612655Y6069723D01*
X5204475Y6074803D02*
G01*
X5059690Y6074803D01*
X5237490Y5899546D02*
G01*
X5029212Y5899546D01*
X4978412Y5808103D02*
G01*
X5008890Y5803023D01*
X5087632Y6262766D01*
X5181612Y6262766D01*
X5247144Y5806330D01*
X5280421Y5808865D01*
X5222255Y6313566D01*
X5036832Y6313566D01*
X4978412Y5808103D01*
X5613400Y5046103D02*
G01*
X4191000Y5046103D01*
X4191000Y6468503D01*
X5613400Y6468503D01*
X5613400Y5046103D01*
D15*
G75*
G01
X6161507Y4787900D02*
G03X6161507Y4787900I-15011J0D01*
G75*
G01
X5976163Y4861128D02*
G03X5976163Y4861128I-15011J0D01*
M02*
